<svg width="89" height="71" viewBox="0 0 89 71" fill="none" xmlns="http://www.w3.org/2000/svg">
<path d="M54.7096 45.2637L40.0417 59.9317L34.2904 54.1804C33.8759 53.7625 33.3829 53.4309 32.8396 53.2045C32.2963 52.9782 31.7135 52.8616 31.125 52.8616C30.5364 52.8616 29.9537 52.9782 29.4104 53.2045C28.8671 53.4309 28.374 53.7625 27.9596 54.1804C27.1292 55.0157 26.6631 56.1457 26.6631 57.3235C26.6631 58.5014 27.1292 59.6313 27.9596 60.4667L36.8762 69.3833C37.2907 69.8012 37.7838 70.1329 38.3271 70.3592C38.8704 70.5856 39.4531 70.7021 40.0417 70.7021C40.6302 70.7021 41.2129 70.5856 41.7562 70.3592C42.2995 70.1329 42.7926 69.8012 43.2071 69.3833L61.0404 51.55C61.8708 50.7147 62.3369 49.5847 62.3369 48.4069C62.3369 47.229 61.8708 46.0991 61.0404 45.2637C60.6259 44.8459 60.1329 44.5142 59.5896 44.2878C59.0463 44.0615 58.4635 43.945 57.875 43.945C57.2864 43.945 56.7037 44.0615 56.1604 44.2878C55.6171 44.5142 55.124 44.8459 54.7096 45.2637V45.2637ZM73.1225 19.0933C70.3954 12.833 65.6902 7.63986 59.7285 4.3102C53.7667 0.980531 46.8774 -0.301886 40.1169 0.659566C33.3564 1.62102 27.0978 4.77327 22.3007 9.63301C17.5036 14.4928 14.4328 20.7917 13.5592 27.5642C9.84088 28.4867 6.51853 30.5822 4.08404 33.5402C1.64955 36.4982 0.232359 40.1616 0.0422939 43.9879C-0.147771 47.8142 0.899399 51.6 3.02875 54.7848C5.15811 57.9695 8.25644 60.3839 11.865 61.6704C12.4345 61.9692 13.0618 62.1413 13.7041 62.1749C14.3463 62.2084 14.9882 62.1026 15.5857 61.8647C16.1832 61.6268 16.7222 61.2625 17.1656 60.7967C17.609 60.3309 17.9465 59.7747 18.1547 59.1662C18.3629 58.5578 18.4371 57.9114 18.372 57.2716C18.307 56.6318 18.1043 56.0136 17.7778 55.4595C17.4514 54.9054 17.0089 54.4285 16.4808 54.0615C15.9527 53.6945 15.3515 53.4461 14.7183 53.3333C12.9806 52.7052 11.481 51.5527 10.4267 50.0352C9.37245 48.5177 8.81567 46.7102 8.83333 44.8625C8.83333 42.4976 9.77276 40.2297 11.445 38.5575C13.1172 36.8853 15.3851 35.9458 17.75 35.9458C18.9324 35.9458 20.0664 35.4761 20.9025 34.64C21.7386 33.8039 22.2083 32.6699 22.2083 31.4875C22.2301 26.2183 24.1178 21.1272 27.5364 17.1175C30.9549 13.1077 35.6833 10.4385 40.8827 9.58356C46.0821 8.72857 51.4163 9.74304 55.9389 12.447C60.4614 15.1509 63.8799 19.3694 65.5879 24.3542C65.8494 25.112 66.3105 25.7852 66.9225 26.3031C67.5345 26.8209 68.2748 27.1642 69.0654 27.2967C72.0349 27.8578 74.7269 29.4081 76.7027 31.695C78.6784 33.9818 79.8214 36.8703 79.9455 39.8898C80.0696 42.9094 79.1674 45.882 77.386 48.3232C75.6046 50.7644 73.0489 52.5304 70.1354 53.3333C68.953 53.4811 67.8777 54.0926 67.1461 55.0332C66.4145 55.9738 66.0866 57.1665 66.2344 58.3489C66.3822 59.5314 66.9936 60.6067 67.9342 61.3382C68.8749 62.0698 70.0676 62.3978 71.25 62.25H72.3646C77.0565 61.0102 81.2156 58.2731 84.2104 54.4544C87.2052 50.6358 88.872 45.9441 88.9578 41.0919C89.0435 36.2398 87.5435 31.4921 84.6855 27.57C81.8275 23.648 77.7677 20.7656 73.1225 19.3608V19.0933Z" fill="#919191"/>
</svg>
