<svg width="36" height="32" viewBox="0 0 36 32" fill="none" xmlns="http://www.w3.org/2000/svg">
<path d="M18 22.3333C17.6868 22.3333 17.3807 22.4262 17.1203 22.6002C16.86 22.7741 16.657 23.0214 16.5372 23.3107C16.4173 23.6001 16.386 23.9184 16.4471 24.2255C16.5082 24.5327 16.659 24.8148 16.8804 25.0362C17.1018 25.2577 17.384 25.4085 17.6911 25.4696C17.9982 25.5307 18.3166 25.4993 18.6059 25.3795C18.8952 25.2596 19.1425 25.0567 19.3165 24.7963C19.4905 24.5359 19.5833 24.2298 19.5833 23.9167C19.5833 23.4967 19.4165 23.094 19.1196 22.7971C18.8226 22.5001 18.4199 22.3333 18 22.3333ZM34.8942 24.6608L22.1483 2.49415C21.7363 1.75555 21.1346 1.14033 20.4054 0.712058C19.6761 0.283784 18.8457 0.0579834 18 0.0579834C17.1543 0.0579834 16.3239 0.283784 15.5946 0.712058C14.8653 1.14033 14.2636 1.75555 13.8517 2.49415L1.18499 24.6608C0.758749 25.3797 0.529715 26.1983 0.52101 27.0339C0.512304 27.8696 0.724236 28.6928 1.13541 29.4204C1.54658 30.148 2.14244 30.7542 2.86282 31.1779C3.58321 31.6015 4.40262 31.8276 5.23832 31.8333H30.7617C31.6041 31.8416 32.4335 31.6257 33.165 31.2078C33.8965 30.7898 34.5036 30.1848 34.9242 29.4549C35.3448 28.7249 35.5636 27.8962 35.5584 27.0538C35.5531 26.2113 35.3238 25.3855 34.8942 24.6608V24.6608ZM32.155 27.8275C32.0162 28.0744 31.8137 28.2796 31.5687 28.4216C31.3236 28.5636 31.0449 28.6373 30.7617 28.635H5.23832C4.95508 28.6373 4.6764 28.5636 4.43133 28.4216C4.18626 28.2796 3.98377 28.0744 3.84499 27.8275C3.70602 27.5868 3.63286 27.3137 3.63286 27.0358C3.63286 26.7579 3.70602 26.4848 3.84499 26.2441L16.5117 4.07748C16.6445 3.81813 16.8464 3.60048 17.095 3.44849C17.3437 3.29651 17.6294 3.21609 17.9208 3.21609C18.2122 3.21609 18.498 3.29651 18.7466 3.44849C18.9953 3.60048 19.1971 3.81813 19.33 4.07748L32.0758 26.2441C32.2329 26.4814 32.3232 26.7566 32.3371 27.0408C32.351 27.325 32.2881 27.6077 32.155 27.8591V27.8275ZM18 9.66665C17.5801 9.66665 17.1773 9.83346 16.8804 10.1304C16.5835 10.4273 16.4167 10.8301 16.4167 11.25V17.5833C16.4167 18.0032 16.5835 18.406 16.8804 18.7029C17.1773 18.9998 17.5801 19.1666 18 19.1666C18.4199 19.1666 18.8226 18.9998 19.1196 18.7029C19.4165 18.406 19.5833 18.0032 19.5833 17.5833V11.25C19.5833 10.8301 19.4165 10.4273 19.1196 10.1304C18.8226 9.83346 18.4199 9.66665 18 9.66665Z" fill="white"/>
</svg>
