<svg width="20" height="20" viewBox="0 0 20 20" fill="none" xmlns="http://www.w3.org/2000/svg">
<circle cx="10" cy="10" r="10" fill="#EAEAEA"/>
<path d="M15.0325 6.4074C14.9628 6.3371 14.8799 6.2813 14.7885 6.24323C14.6971 6.20515 14.599 6.18555 14.5 6.18555C14.401 6.18555 14.303 6.20515 14.2116 6.24323C14.1202 6.2813 14.0372 6.3371 13.9675 6.4074L8.38002 12.0024L6.03252 9.6474C5.96013 9.57747 5.87468 9.52248 5.78103 9.48558C5.68739 9.44868 5.5874 9.43058 5.48677 9.43232C5.38613 9.43406 5.28682 9.45561 5.19451 9.49573C5.1022 9.53585 5.0187 9.59375 4.94877 9.66615C4.87884 9.73854 4.82386 9.82399 4.78696 9.91763C4.75005 10.0113 4.73196 10.1113 4.7337 10.2119C4.73544 10.3125 4.75698 10.4118 4.7971 10.5042C4.83722 10.5965 4.89513 10.68 4.96752 10.7499L7.84752 13.6299C7.91725 13.7002 8.0002 13.756 8.09159 13.7941C8.18299 13.8321 8.28101 13.8517 8.38002 13.8517C8.47903 13.8517 8.57706 13.8321 8.66846 13.7941C8.75985 13.756 8.8428 13.7002 8.91252 13.6299L15.0325 7.5099C15.1087 7.43966 15.1694 7.35443 15.211 7.25955C15.2525 7.16468 15.274 7.06222 15.274 6.95865C15.274 6.85507 15.2525 6.75262 15.211 6.65774C15.1694 6.56287 15.1087 6.47763 15.0325 6.4074V6.4074Z" fill="#161616"/>
</svg>
